HIERARCHY
ROOT Hips
{
	OFFSET -14.64140 90.27770 -84.91600
	CHANNELS 6 Xposition Yposition Zposition Zrotation Xrotation Yrotation
	JOINT Spine
	{
		OFFSET 0.00000 13.20850 -1.60436
		CHANNELS 3 Zrotation Xrotation Yrotation
		JOINT Spine1
		{
			OFFSET 0.00000 8.61716 0.00000
			CHANNELS 3 Zrotation Xrotation Yrotation
			JOINT Spine2
			{
				OFFSET 0.00000 8.61717 0.00000
				CHANNELS 3 Zrotation Xrotation Yrotation
				JOINT Spine3
				{
					OFFSET 0.00000 8.61717 0.00000
					CHANNELS 3 Zrotation Xrotation Yrotation
					JOINT Neck
					{
						OFFSET 0.00000 11.07920 1.10792
						CHANNELS 3 Zrotation Xrotation Yrotation
						JOINT Neck1
						{
							OFFSET 0.00000 7.08032 0.00000
							CHANNELS 3 Zrotation Xrotation Yrotation
							JOINT Head
							{
								OFFSET 0.00000 7.08031 0.00000
								CHANNELS 3 Zrotation Xrotation Yrotation
								End site
								{
									OFFSET 0.00000 0.00000 0.00000
								}
							}
						}
					}
					JOINT RightShoulder
					{
						OFFSET -0.01000 7.91373 5.19711
						CHANNELS 3 Zrotation Xrotation Yrotation
						JOINT RightArm
						{
							OFFSET -18.41580 0.00000 0.00000
							CHANNELS 3 Zrotation Xrotation Yrotation
							JOINT RightForeArm
							{
								OFFSET -29.11090 0.00000 0.00000
								CHANNELS 3 Zrotation Xrotation Yrotation
								JOINT RightHand
								{
									OFFSET -24.65040 0.00000 0.00000
									CHANNELS 3 Zrotation Xrotation Yrotation
									JOINT RightHandThumb1
									{
										OFFSET -5.35114 -0.85590 3.97906
										CHANNELS 3 Zrotation Xrotation Yrotation
										JOINT RightHandThumb2
										{
											OFFSET -4.52789 0.00000 0.00000
											CHANNELS 3 Zrotation Xrotation Yrotation
											JOINT RightHandThumb3
											{
												OFFSET -2.46976 0.00000 0.00000
												CHANNELS 3 Zrotation Xrotation Yrotation
												End site
												{
													OFFSET 0.00000 0.00000 0.00000
												}
											}
										}
									}
									JOINT RightHandIndex1
									{
										OFFSET -14.26970 0.00000 2.88139
										CHANNELS 3 Zrotation Xrotation Yrotation
										JOINT RightHandIndex2
										{
											OFFSET -5.48836 0.00000 0.00000
											CHANNELS 3 Zrotation Xrotation Yrotation
											JOINT RightHandIndex3
											{
												OFFSET -3.01859 0.00000 0.00000
												CHANNELS 3 Zrotation Xrotation Yrotation
												End site
												{
													OFFSET 0.00000 0.00000 0.00000
												}
											}
										}
									}
									JOINT RightHandMiddle1
									{
										OFFSET -14.26970 0.00000 -0.09147
										CHANNELS 3 Zrotation Xrotation Yrotation
										JOINT RightHandMiddle2
										{
											OFFSET -6.17441 0.00000 0.00000
											CHANNELS 3 Zrotation Xrotation Yrotation
											JOINT RightHandMiddle3
											{
												OFFSET -3.56743 0.00000 0.00000
												CHANNELS 3 Zrotation Xrotation Yrotation
												End site
												{
													OFFSET 0.00000 0.00000 0.00000
												}
											}
										}
									}
									JOINT RightHandRing1
									{
										OFFSET -12.69180 0.00000 -3.06433
										CHANNELS 3 Zrotation Xrotation Yrotation
										JOINT RightHandRing2
										{
											OFFSET -5.62556 0.00000 0.00000
											CHANNELS 3 Zrotation Xrotation Yrotation
											JOINT RightHandRing3
											{
												OFFSET -3.56744 0.00000 0.00000
												CHANNELS 3 Zrotation Xrotation Yrotation
												End site
												{
													OFFSET 0.00000 0.00000 0.00000
												}
											}
										}
									}
									JOINT RightHandPinky1
									{
										OFFSET -11.11390 0.00000 -6.03719
										CHANNELS 3 Zrotation Xrotation Yrotation
										JOINT RightHandPinky2
										{
											OFFSET -4.52789 0.00000 0.00000
											CHANNELS 3 Zrotation Xrotation Yrotation
											JOINT RightHandPinky3
											{
												OFFSET -2.46976 0.00000 0.00000
												CHANNELS 3 Zrotation Xrotation Yrotation
												End site
												{
													OFFSET 0.00000 0.00000 0.00000
												}
											}
										}
									}
								}
							}
						}
					}
					JOINT LeftShoulder
					{
						OFFSET 0.01000 7.91373 5.19711
						CHANNELS 3 Zrotation Xrotation Yrotation
						JOINT LeftArm
						{
							OFFSET 18.41580 0.00000 0.00000
							CHANNELS 3 Zrotation Xrotation Yrotation
							JOINT LeftForeArm
							{
								OFFSET 29.11090 0.00000 0.00000
								CHANNELS 3 Zrotation Xrotation Yrotation
								JOINT LeftHand
								{
									OFFSET 24.65040 0.00000 0.00000
									CHANNELS 3 Zrotation Xrotation Yrotation
									JOINT LeftHandThumb1
									{
										OFFSET 5.35114 -0.85590 3.97906
										CHANNELS 3 Zrotation Xrotation Yrotation
										JOINT LeftHandThumb2
										{
											OFFSET 4.52789 0.00000 0.00000
											CHANNELS 3 Zrotation Xrotation Yrotation
											JOINT LeftHandThumb3
											{
												OFFSET 2.46977 0.00000 0.00000
												CHANNELS 3 Zrotation Xrotation Yrotation
												End site
												{
													OFFSET 0.00000 0.00000 0.00000
												}
											}
										}
									}
									JOINT LeftHandIndex1
									{
										OFFSET 14.26970 0.00000 2.88139
										CHANNELS 3 Zrotation Xrotation Yrotation
										JOINT LeftHandIndex2
										{
											OFFSET 5.48836 0.00000 0.00000
											CHANNELS 3 Zrotation Xrotation Yrotation
											JOINT LeftHandIndex3
											{
												OFFSET 3.01859 0.00000 0.00000
												CHANNELS 3 Zrotation Xrotation Yrotation
												End site
												{
													OFFSET 0.00000 0.00000 0.00000
												}
											}
										}
									}
									JOINT LeftHandMiddle1
									{
										OFFSET 14.26970 0.00000 -0.09147
										CHANNELS 3 Zrotation Xrotation Yrotation
										JOINT LeftHandMiddle2
										{
											OFFSET 6.17440 0.00000 0.00000
											CHANNELS 3 Zrotation Xrotation Yrotation
											JOINT LeftHandMiddle3
											{
												OFFSET 3.56744 0.00000 0.00000
												CHANNELS 3 Zrotation Xrotation Yrotation
												End site
												{
													OFFSET 0.00000 0.00000 0.00000
												}
											}
										}
									}
									JOINT LeftHandRing1
									{
										OFFSET 12.69180 0.00000 -3.06433
										CHANNELS 3 Zrotation Xrotation Yrotation
										JOINT LeftHandRing2
										{
											OFFSET 5.62556 0.00000 0.00000
											CHANNELS 3 Zrotation Xrotation Yrotation
											JOINT LeftHandRing3
											{
												OFFSET 3.56744 0.00000 0.00000
												CHANNELS 3 Zrotation Xrotation Yrotation
												End site
												{
													OFFSET 0.00000 0.00000 0.00000
												}
											}
										}
									}
									JOINT LeftHandPinky1
									{
										OFFSET 11.11390 0.00000 -6.03719
										CHANNELS 3 Zrotation Xrotation Yrotation
										JOINT LeftHandPinky2
										{
											OFFSET 4.52789 0.00000 0.00000
											CHANNELS 3 Zrotation Xrotation Yrotation
											JOINT LeftHandPinky3
											{
												OFFSET 2.46976 0.00000 0.00000
												CHANNELS 3 Zrotation Xrotation Yrotation
												End site
												{
													OFFSET 0.00000 0.00000 0.00000
												}
											}
										}
									}
								}
							}
						}
					}
					JOINT pCube4
					{
						OFFSET 0.00000 10.91090 1.10792
						CHANNELS 3 Zrotation Xrotation Yrotation
						End site
						{
							OFFSET 0.00000 0.00000 0.00000
						}
					}
				}
			}
		}
	}
	JOINT RightUpLeg
	{
		OFFSET -9.98441 0.00000 0.00000
		CHANNELS 3 Zrotation Xrotation Yrotation
		JOINT RightLeg
		{
			OFFSET 0.00000 -42.11790 0.00000
			CHANNELS 3 Zrotation Xrotation Yrotation
			JOINT RightFoot
			{
				OFFSET 0.00000 -45.00020 -0.00001
				CHANNELS 3 Zrotation Xrotation Yrotation
				JOINT RightForeFoot
				{
					OFFSET 0.00000 -3.74820 0.00000
					CHANNELS 3 Zrotation Xrotation Yrotation
					JOINT RightToeBase
					{
						OFFSET 0.00000 0.06325 14.43120
						CHANNELS 3 Zrotation Xrotation Yrotation
						End site
						{
							OFFSET 0.00000 0.00000 0.00000
						}
					}
				}
			}
		}
	}
	JOINT LeftUpLeg
	{
		OFFSET 9.98441 0.00000 0.00000
		CHANNELS 3 Zrotation Xrotation Yrotation
		JOINT LeftLeg
		{
			OFFSET 0.00000 -42.11800 0.00000
			CHANNELS 3 Zrotation Xrotation Yrotation
			JOINT LeftFoot
			{
				OFFSET 0.00000 -45.00070 0.00000
				CHANNELS 3 Zrotation Xrotation Yrotation
				JOINT LeftForeFoot
				{
					OFFSET 0.00000 -3.74824 0.00000
					CHANNELS 3 Zrotation Xrotation Yrotation
					JOINT LeftToeBase
					{
						OFFSET 0.00000 0.06325 14.43110
						CHANNELS 3 Zrotation Xrotation Yrotation
						End site
						{
							OFFSET 0.00000 0.00000 0.00000
						}
					}
				}
			}
		}
	}
}
MOTION
Frames: 4
Frame Time: 0.050000
0.032423743429014516 -0.04403842285479579 -0.012998895814057679 -0.04836994371413936 0.042060848909575 -0.021015152723245268 -2.5687408232702484 1.0164061223651448 -0.8105995148251222 -1.015290860154003 3.791949294187921 0.3851009542636724 -1.2398555623523175 -1.7180032451209426 -0.6017351462594985 0.09027406350302143 0.5023945506300767 -0.7159378325234901 -0.022342808760658226 12.75208888082883 -0.29212505485807355 0.10064389290904271 -0.3304343149896153 -2.8986059375975954 0.30828513495826715 -15.631731402251633 -0.272523883459534 -4.521271228408971 1.6499917127914236 -13.958410390881316 67.87509797139239 21.79897783594916 9.709599238081955 5.376793061930638 2.0781900510248406 69.94212197593617 15.496687060367748 -0.2766738198051897 -2.221243977560618 4.569262943870907 -0.09789570849997306 -1.6003389100772019 -0.036605252798360424 -0.04716662158266548 -56.25165392718287 -0.0145184253679223 0.021280331969170622 -56.24863480651328 -38.73888418970666 -0.03689664164529039 -0.025729029087599175 0.019912302069890038 0.0021513859060608314 0.03564327514781487 0.025064022745766423 -0.04454111924072552 0.04616031228186913 -36.6746256365837 0.03769667668391346 0.015627824996448835 -0.017276154802660707 -0.006329075824027715 -0.0041901543594026975 0.023893765561541255 -0.035668996336675786 0.01990010472893236 -19.73726042591965 0.009698900420243397 -0.013617105661509065 0.04643053420002856 -0.03305964495796806 -0.02340104327009482 -0.00968114011495689 -0.03166240144113565 0.019980075976122443 24.040082550146476 -0.021947369609645724 0.024325983252966456 28.90043043821325 0.017941866108624083 -0.019937702111701604 28.862196547707423 -0.03270908925975292 0.039572435759616026 5.179018216232144 1.2270682756183953 12.781228326793032 -67.64675453207894 30.73433604516613 -9.56874463190304 -13.354765714402326 0.5926550678962781 -69.77852159856467 -9.095180638624957 -0.12471420155621399 1.5835846087902985 -0.4718057446504261 0.062388756796893936 -8.104453294403548 0.035112308955688454 -0.017185357915785376 44.584840000674056 -0.029349476338558868 0.027970184980341824 44.586435311248536 12.460104938532623 0.002199417526785276 -0.040994320018115996 0.038033312254635125 -0.010574598288092435 0.03847438373834704 -0.03320032375665721 0.04345849055961294 -0.04540666155533024 11.06771521912834 -0.00046381634928269514 -0.04720972982660708 0.0038392665895237888 0.021750694242549298 -0.014940811368770322 0.04870130709957202 -0.042455504312027964 0.015535141274803007 4.7626276054135035 0.03959040893127264 -0.03004051893815034 0.019680303062010577 -0.03176310475009725 0.006872197568447612 -0.04847120890722631 0.04098922574916657 -0.011803060131745476 -5.569480549302744 0.00743558431479949 -0.03743211745201312 -6.739209558621779 0.03561760963393167 -0.0011386346128168306 -6.755120057559793 -0.020342812031050733 0.01814749610836745 -0.008946025143145396 0.036504903884542146 -0.014190488023761758 8.077000925678226 3.5009791351375825 -19.181655144072202 0.038147822619174244 10.43034815381187 -0.007878402486145904 -5.613179092436089 -15.652236096403797 3.223679077597894 -0.004494311135450792 -0.03466250302133345 0.005580466350825846 -0.04638487359631254 4.655770374500368 -0.003983206922180541 12.484668912639826 -8.245936778001441 6.844875699209492 0.013545655173794089 46.39077054292185 -0.044935797859925325 -4.32889103965375 -14.731651084637448 -3.7922416258852194 -0.0023180876020145636 -0.025833765287086665 0.03143771878879458 0.0066216738303426885 -10.732571374854595 0.015740855065261124 
-0.03655746245082423 0.023171249097509065 -0.009104665038015295 0.04366912992127884 0.03847015340090129 0.025412218708082326 -2.7087428293884765 0.9865432839827122 -0.7426814267590267 -0.9948412579396333 3.84725681155816 0.37174307864445916 -1.1996561669772847 -1.7342665069699068 -0.5706382655737985 0.11172323105163944 0.5131214961587747 -0.742728467236846 -0.029468824834544837 12.614780971006825 -0.2977496314438599 0.10934312675563239 -0.3609198310225362 -2.63213696769061 0.3350489546877113 -15.606621764963926 -0.21036588078224733 -4.472224097792791 1.6184183858312482 -13.938607777653663 67.61993299945344 21.74590412420442 9.404175335539747 3.960876581804298 1.9149137077447063 71.181452659552 15.804837640095538 -0.31171719466717485 -2.3885362263364973 4.52627297968329 -0.09743516909638515 -1.6386267211248144 -0.04947559291899377 -0.03354142437085235 -56.23688684361044 0.009992687169728632 0.021453315074535302 -56.20447212438753 -38.78508027358815 -0.002876940923006963 -0.004168520917694187 0.045225624553114734 0.030441998195360163 0.004274861195956992 0.04024555279982693 -0.002720285073494648 -0.03490081365990413 -36.674998140101195 0.04043381404600993 0.04909390649918273 0.0066538765903982455 -0.0350148692334848 -0.012658702384566168 -0.009656285262522218 -0.03910577944485652 0.014952277186272053 -19.78887409703197 0.02652214146078138 -0.00185502900934601 0.009835214974077152 -0.013803242107551593 -0.004861925225247018 0.010898411160252095 -0.0012447895698608007 0.01894859818538935 24.028359530921136 0.003291991287449347 -0.019469497702764186 28.87113341930691 0.04237620228938784 0.025074700821545712 28.884993476604926 0.013324860210035457 0.010634473138693708 5.189194254011846 1.2394293763849766 12.75944559424901 -67.53866051084108 30.676739340140063 -9.607243367664733 -11.868516850163157 -0.002147505092325204 -69.71225220194401 -9.112938449527087 0.053207718817503885 1.469889637442449 -0.4779754819046953 0.03773323730376744 -8.12247449597253 0.04285941150262487 -0.003886029525971717 44.550549659081156 0.02736230291104327 0.018980871770850595 44.584502200436106 12.454263876156872 -0.008373455008422194 -0.002351325430877943 -0.035199942434265136 0.0010771642385502748 0.03927001312237888 0.038441757423110116 0.006446275829572524 0.04595490115615442 11.104174752236355 -0.045262321710790074 0.033466203870127643 -0.01570395997484504 -0.027953943204230617 0.02177519088857023 0.038178484765120604 -0.02698624379075357 0.023853530319669646 4.787014464359116 0.007204086764936862 -0.04348390834858708 -0.03822060977461906 -0.03717675109045224 -0.03458938920275146 0.0014036485340211745 -0.02391323743137053 0.010209252165644268 -5.597517292042312 0.017887279788556018 0.042238049522529846 -6.716276184506505 0.018543192295608704 0.029763557808345494 -6.730982465608519 -0.01545149092523652 0.02128530935056312 -0.04062069762136411 -0.04448841557269108 -0.011222677129304396 8.082801451742245 3.4722111369741087 -19.194491848734973 0.03714893027903854 10.419119789792834 0.03898210924563382 -5.626431295118804 -15.674638256850933 3.233746092527761 0.045906850072977005 -0.03157110389276216 0.02450217507123203 -0.025084032974599324 4.733053403922889 -0.03033481868128824 12.444183481693248 -8.242854412786349 6.871904693252351 -0.042240393775106 46.41924799874027 -0.04370727255088102 -4.283360735793729 -14.720197352060067 -3.8377554036033623 -0.03752073535775072 0.042925002129621914 -0.04856104662117922 0.009565243424458036 -10.771403105432052 -0.049765847059968414 
-0.036861218558445395 0.012009830719836617 -0.02794455893233784 0.032419054793922146 0.012194031218927301 -0.014184003909571495 -2.932562573668279 0.9934133048065856 -0.7563741205404323 -1.0049992416616629 3.774945595090883 0.3797549890049962 -1.2112844587452434 -1.7303391171325733 -0.5235164109476305 -0.05008680477303359 0.491726062064361 -0.7155156982333977 -0.06486441205229584 12.663355940238755 -0.0373184173757813 0.14049782734777777 -0.28609483799592694 -2.3045934005776605 0.25151610820652104 -15.541257849232338 -0.14808898924286423 -4.585611974548629 1.6732571157626512 -13.951468008347042 67.36295043248386 21.988141927850414 9.356756760580502 2.1507827014283945 1.5540751088016234 71.88748879742808 16.125681761584648 -0.27278559501828276 -2.526333379604449 4.518428858305413 -0.15529657755601217 -1.6115285110466728 0.003083122451360203 -0.0010683668904974525 -56.21828319930397 0.039381906318653785 0.017871589622005826 -56.19721577798311 -38.75512286026451 0.020699162809262858 0.02665037354800371 0.01788983914329848 -0.022865608331781046 0.03605782159091641 0.03378635757599377 0.025965261944092193 -0.0013891299202122645 -36.67404059472538 0.02872263954202488 0.01877216508838833 0.011902145372166356 -0.012818778330126793 -0.014060530980219962 -0.022475683005304302 -0.015431225049179905 -0.04583915674587401 -19.75396207320156 0.028423684777792065 -0.04986601553950398 -0.048909653358147995 0.002968587018032093 -0.0033582719837487065 -0.022287006117279004 -0.01968549222012754 -0.0020266602883664635 24.066570579620283 0.04736381218388227 -0.028017923544325037 28.82714218498792 0.022942408286301435 -0.025780418672963334 28.896635588432996 0.00455560666026549 -0.043111126592532946 5.29824519383188 1.2987982289157554 12.831562065819876 -67.48921233382582 30.50270190932405 -9.447540126179014 -9.83019876695914 -0.9528175169801094 -68.53245232034325 -9.346757423613628 0.21857455525326303 1.4888650576925584 -0.46594874761983635 0.09474251784193025 -8.11193889763474 0.005157862511402571 -0.015275843806404942 44.574636046249594 -0.01507340024959681 0.0015256671092472502 44.59864771214514 12.421869469122424 -0.014863914743551318 0.04365542895743861 -0.040952874711269745 -0.012767986055452317 -0.0464489593888324 0.023577345168306046 -0.03307455205728282 -0.003443901879895294 11.124034305184503 -0.027519810909817758 0.03151017149703307 0.03622870765408755 -0.04256409417431013 -0.04062887158736235 -0.0017430710569717612 -0.012018358891425725 0.025660631330290885 4.741493079190747 -0.041155397101764156 0.0137262969038639 0.03871684775952864 -0.02880585161370862 0.0077863020771055955 0.0010615820897964254 -0.019710907224504828 -0.007021549355825848 -5.611419696976547 -0.03556679555682097 -0.027261227815506234 -6.72127458856066 -0.025385042018522194 0.00899177937649568 -6.7082637833823275 -0.04121371569364955 -0.005440049900431858 -0.043820597882313565 -0.0413304530956472 -0.037060466600560456 8.032119596897049 3.510264486134219 -19.196337516897803 0.005144285120332837 10.374358834991428 0.04611535067756707 -5.653153864922317 -15.649001038706555 3.1717429454354926 0.04628596438209952 0.0017982887417680663 -0.04543385804444265 -0.012842745516579468 4.694972764561562 -0.04383183446704168 12.496329986435084 -8.237861656900428 6.835195141963118 -0.035738003102733985 46.38869120594988 -0.022260367539889886 -4.370513575392853 -14.749331054533807 -3.8366633174015927 0.0045072880186984845 -0.00860542636169256 0.006428786971490506 -0.00011733174374521368 -10.761250644971254 -0.049766382778015275 
0.004056675033001318 -0.001268763050880857 0.01569590606319498 0.034783232722145944 0.017645653737095583 -0.028516870963924336 -3.0284571800847417 0.9099925135668065 -0.6808462434790873 -1.0842384747952545 3.7579145126066327 0.36591714478943854 -1.2657745384738885 -1.7680053756703582 -0.43469629916344943 -0.0840323308702279 0.47144697150078846 -0.7771815278829585 -0.08166700635388642 12.647992737150624 0.062129331205450104 0.10405541686809139 -0.26745042917555567 -1.8621822863124156 0.2574714237013227 -15.470733495224827 -0.16564624560858307 -4.728758368086954 1.7216788868030126 -13.84017969166534 67.01176836044016 22.187262144656817 9.448470359769992 0.6215152028125172 1.3367272794180391 71.73849273643282 16.63273458227537 -0.3170694417113752 -2.683335166485328 4.5177612500780375 -0.1385693303493596 -1.591226738687824 -0.020230769247687432 -0.004196348556266078 -56.262767178864905 -0.04856432430754535 -0.011601304803436912 -56.24299437856922 -38.807313451293375 -0.011667393309936802 -0.04388973850923475 0.006760399083298545 0.002139005505400205 -0.043599511352802524 -0.004809975009113105 -0.04543395622092703 -0.009595806543175954 -36.68035048318736 -0.009340752855114464 -0.0006909901634505471 -0.008721950294680345 -0.012917464229139218 -0.04879391735215103 0.02399296996995429 -0.04738883186930719 -0.000319495965643474 -19.730650283746677 0.02679848127591258 0.004438513068046022 0.032753712390878494 0.02743934951283567 -0.013667549220213276 0.010785621945280148 0.010039559794830451 0.01453806609282914 24.06279355578843 -0.001314911764843142 0.029397279562437886 28.868094638619134 -0.01673140969124677 -0.037128994357616456 28.893240064852648 0.037084541723042874 0.041760952762631975 5.361201438564431 1.2787259763746117 12.838882813684245 -67.47241671354833 30.166895673522504 -9.157689105827249 -7.809213700114897 -1.8508761259990285 -66.62569209612154 -9.513514032905038 0.625034539727281 1.3699208561502438 -0.45129735713734564 0.08144059771544285 -8.14341549014939 0.04994462153193372 -0.01843958814846325 44.57296348247698 -0.015671097717887342 -0.01210692801631083 44.60124445323218 12.464701332004656 0.005392062518649606 -0.01435273807091567 -0.03255414779916023 -0.0035442005555054753 -0.004393979422616164 -0.0003332842836050161 0.013276009000877576 -0.048355652369949494 11.059963115763562 0.03731643101831778 0.0004972947827604355 -0.007640715287662884 -0.01505481772686555 -0.0485674036517709 0.03737108958397339 0.016514991655721633 0.044396837959561536 4.798026483239141 -0.010448842678269656 -0.026333290946338336 -0.00877908117519153 -0.03392764835887898 0.024408204609120056 0.024997517013209906 0.038038813827629615 -0.01802797314505956 -5.607140916776017 0.0239937256882876 0.0066920722202565616 -6.708331626493642 0.04177238723922948 -0.026506633049460965 -6.722157639240938 0.02203222313460315 0.0341442345667458 -0.01414733607108501 -0.03365132367120345 0.024573707197893552 8.089710800725593 3.521585539831784 -19.20785929665062 -0.02444314899447417 10.410161850239582 0.03473967167299247 -5.581013705090727 -15.662750295817524 3.240733366048258 0.038042689476400944 -0.04173306296447956 -0.031519960215262995 0.04161468581107898 4.662298563474715 -0.03641285149618974 12.494485885576232 -8.236127075459592 6.906730953965442 0.006541937078474047 46.40802619510595 -0.021274942524428173 -4.289558913204301 -14.791605325339667 -3.837069495003224 0.004895281470887255 0.022588563346153053 0.0006314108886492934 -0.019241236970511683 -10.768967709664318 0.020202931135025463 
